# xmcd CD database file
#
# Track frame offsets:
#	150
#	23175
#	42535
#
# Disc length: 871 seconds
#
# Revision: 0
# Processed by: cddbd v1.5.1PL0 Copyright (c) Steve Scherf et al.
# Submitted via: CDex 1.51
#
DISCID=20036503
DTITLE=森川美穂 - 翼にかえて
DYEAR=1992
DGENRE=JPop
TTITLE0=翼にかえて
TTITLE1=街
TTITLE2=翼にかえて(カラオケ)
EXTD=YEAR: 1992
EXTT0=
EXTT1=
EXTT2=
PLAYORDER=
